<svg xmlns="http://www.w3.org/2000/svg" xmlns:xlink="http://www.w3.org/1999/xlink" viewBox="0 0 500 500"><defs><style>.cls-1{fill:#00062a;}.cls-2{fill:url(#linear-gradient);}.cls-3,.cls-6{fill:#00097f;}.cls-3{opacity:0.17;}.cls-4{fill:url(#linear-gradient-2);}.cls-5{fill:url(#linear-gradient-3);}.cls-6{opacity:0.36;}.cls-7{fill:url(#linear-gradient-4);}.cls-8{fill:url(#radial-gradient);}.cls-9{opacity:0.29;}.cls-10{fill:#a6f7ff;}.cls-11{opacity:0.46;}.cls-12{fill:#f98dff;}.cls-13{fill:url(#linear-gradient-5);}.cls-14{fill:url(#linear-gradient-6);}.cls-15{fill:url(#linear-gradient-7);}.cls-16{fill:#fdfdfd;}.cls-17{fill:url(#linear-gradient-8);}.cls-18{opacity:0.47;}.cls-19{font-size:51.97px;fill:#fff;font-family:Montserrat-ExtraBold, Montserrat;font-weight:800;}.cls-20{letter-spacing:-0.03em;}</style><linearGradient id="linear-gradient" x1="157.58" y1="237.6" x2="324.16" y2="170.31" gradientUnits="userSpaceOnUse"><stop offset="0" stop-color="#4850bf"/><stop offset="0.17" stop-color="#3f59b7"/><stop offset="0.52" stop-color="#306aaa"/><stop offset="1" stop-color="#4aedd0"/></linearGradient><linearGradient id="linear-gradient-2" x1="264.55" y1="222.02" x2="342.51" y2="222.02" xlink:href="#linear-gradient"/><linearGradient id="linear-gradient-3" x1="216.35" y1="215.64" x2="383.43" y2="179.37" gradientUnits="userSpaceOnUse"><stop offset="0" stop-color="#4d17c2"/><stop offset="1" stop-color="#e434c5"/></linearGradient><linearGradient id="linear-gradient-4" x1="159.49" y1="198.3" x2="237.45" y2="198.3" xlink:href="#linear-gradient-3"/><radialGradient id="radial-gradient" cx="251.62" cy="205.74" r="39.95" gradientTransform="translate(0.26 5.74) scale(1 0.97)" gradientUnits="userSpaceOnUse"><stop offset="0" stop-color="#1072f0"/><stop offset="0.91" stop-color="#0d36cd"/><stop offset="1" stop-color="#0d30c9"/></radialGradient><linearGradient id="linear-gradient-5" x1="155.14" y1="220.62" x2="175.7" y2="220.62" gradientUnits="userSpaceOnUse"><stop offset="0.09" stop-color="#fc6e4a"/><stop offset="1" stop-color="#ffdb17"/></linearGradient><linearGradient id="linear-gradient-6" x1="314.68" y1="177.27" x2="322.53" y2="177.27" xlink:href="#linear-gradient-5"/><linearGradient id="linear-gradient-7" x1="314.39" y1="270.32" x2="330.07" y2="270.32" xlink:href="#linear-gradient-5"/><linearGradient id="linear-gradient-8" x1="172.38" y1="232.43" x2="179.01" y2="232.43" xlink:href="#linear-gradient-5"/></defs><g id="BACKGROUND"><rect class="cls-1" width="500" height="500"/></g><g id="OBJECTS"><path class="cls-2" d="M306.4,260c-22.51,32.31-88.95,40.28-148.39,17.81S68.62,211,91.13,178.65a51.28,51.28,0,0,1,8.4-9.28c.57-.51,1.15-1,1.75-1.48a3,3,0,0,0-.2.29c-18.17,26.07,2.23,60.49,45.56,76.86s93.21,8.53,111.38-17.56A35.24,35.24,0,0,0,263.77,199a43.2,43.2,0,0,0-3.6-10.14,89.29,89.29,0,0,1,24.69.74c1.58.26,3.14.57,4.67.93l.31.29a91,91,0,0,1,14.86,17.48C315.89,225.76,317.34,244.3,306.4,260Z"/><path class="cls-3" d="M295.53,248.94c-20.38,32.31-80.55,40.28-134.38,17.82-52.85-22-79.94-65.25-61.62-97.39.57-.51,1.15-1,1.75-1.48a3,3,0,0,0-.2.29c-18.17,26.07,2.23,60.49,45.56,76.86s93.21,8.53,111.38-17.56A35.24,35.24,0,0,0,263.77,199a43.2,43.2,0,0,0-3.6-10.14,89.29,89.29,0,0,1,24.69.74c1.58.26,3.14.57,4.67.93l.31.29q2.28,3.18,4.15,6.42C304.13,214.7,305.44,233.24,295.53,248.94Z"/><path class="cls-4" d="M340.74,248a39.79,39.79,0,0,1-3.46,7.75,35.34,35.34,0,0,0,.94-8.11c0-16.2-11-30.55-28-39.41a86.63,86.63,0,0,0-40-9.33c-.68,0-1.36,0-2,0a43,43,0,0,0-3.71-10.14,93.61,93.61,0,0,1,25.34.74c1.63.27,3.24.58,4.8.93C328.41,198,348.83,223,340.74,248Z"/><path class="cls-5" d="M195.59,160.32C218.11,128,284.55,120,344,142.51s89.39,66.86,66.88,99.16a51.28,51.28,0,0,1-8.4,9.28c-.57.51-1.15,1-1.75,1.48.07-.09.13-.19.2-.29,18.17-26.07-2.23-60.49-45.57-76.86s-93.2-8.53-111.38,17.56a35.28,35.28,0,0,0-5.75,28.53,43.7,43.7,0,0,0,3.61,10.14,89.28,89.28,0,0,1-24.69-.74c-1.58-.26-3.14-.57-4.67-.93l-.31-.29a91,91,0,0,1-14.86-17.48C186.11,194.56,184.66,176,195.59,160.32Z"/><path class="cls-6" d="M206.47,171.38c20.38-32.31,80.55-40.28,134.37-17.82,52.86,22.05,79.94,65.25,61.63,97.39-.57.51-1.15,1-1.75,1.48.07-.09.13-.19.2-.29,18.17-26.07-2.23-60.49-45.57-76.86s-93.2-8.53-111.38,17.56a35.28,35.28,0,0,0-5.75,28.53,43.7,43.7,0,0,0,3.61,10.14,89.28,89.28,0,0,1-24.69-.74c-1.58-.26-3.14-.57-4.67-.93l-.31-.29q-2.28-3.18-4.15-6.42C197.87,205.62,196.56,187.08,206.47,171.38Z"/><path class="cls-7" d="M161.26,172.3a39.79,39.79,0,0,1,3.46-7.75,35.34,35.34,0,0,0-.94,8.11c0,16.2,11,30.55,28,39.41a86.63,86.63,0,0,0,40,9.33c.68,0,1.36,0,2,0a43,43,0,0,0,3.71,10.14,93.69,93.69,0,0,1-25.35-.74c-1.62-.27-3.23-.58-4.79-.93C173.59,222.36,153.17,197.36,161.26,172.3Z"/><ellipse class="cls-1" cx="251" cy="205.8" rx="55.36" ry="36.25"/><ellipse class="cls-8" cx="251" cy="205.8" rx="47.64" ry="29.27"/><path class="cls-6" d="M292.42,220.27c-8.2,8.84-23.68,14.8-41.42,14.8-26.31,0-47.64-13.1-47.64-29.26,0-14.11,16.23-25.88,37.85-28.65-18.12,3.7-31.18,14.2-31.18,26.57,0,15.47,20.41,28,45.59,28C270.73,231.74,284.12,227.22,292.42,220.27Z"/><g class="cls-9"><path class="cls-10" d="M218.69,284a120.4,120.4,0,0,0,12.88.17c4.29-.1,8.56-.5,12.79-1l3.17-.45c1.05-.16,2.09-.38,3.14-.56,2.11-.33,4.17-.88,6.23-1.37,1.05-.22,2.05-.57,3.07-.85s2-.58,3-.92l3-1.1,1.49-.55c.49-.2,1-.43,1.44-.65l2.9-1.3c1-.41,1.86-1,2.79-1.48s1.86-1,2.76-1.56l2.68-1.73,1.35-.86,1.3-.92,2.6-1.86,2.49-2c.86-.64,1.65-1.34,2.45-2a64.94,64.94,0,0,0,8.81-9.2,36.3,36.3,0,0,0,6.23-11.13,24.54,24.54,0,0,1-2.06,6.14A45.94,45.94,0,0,1,300,254.4a57.74,57.74,0,0,1-8.51,9.89c-1.54,1.55-3.25,2.9-4.91,4.3l-2.61,2-1.31,1-1.35.91-2.72,1.81c-.92.58-1.9,1.1-2.84,1.64s-1.89,1.14-2.89,1.57l-3,1.37a82.06,82.06,0,0,1-25.32,6.1A100,100,0,0,1,218.69,284Z"/></g><g class="cls-11"><path class="cls-12" d="M282.67,138a120.4,120.4,0,0,0-12.88-.17c-4.29.1-8.55.5-12.79,1l-3.16.45c-1.06.16-2.1.38-3.15.56-2.1.34-4.16.89-6.23,1.37-1,.22-2,.57-3.07.85s-2,.58-3,.92l-3,1.1-1.49.55c-.49.2-1,.44-1.45.65l-2.89,1.3c-1,.41-1.86,1-2.8,1.48s-1.85,1-2.76,1.56l-2.68,1.73-1.34.86-1.3.93-2.6,1.85-2.5,2c-.85.64-1.65,1.34-2.45,2a65.51,65.51,0,0,0-8.81,9.2,36.07,36.07,0,0,0-6.22,11.13,24.14,24.14,0,0,1,2.06-6.14,44.62,44.62,0,0,1,3.21-5.67,58.18,58.18,0,0,1,8.51-9.89c1.54-1.55,3.25-2.89,4.92-4.3l2.61-2,1.3-1,1.35-.91,2.72-1.81c.92-.58,1.9-1.09,2.85-1.64s1.88-1.13,2.89-1.57l3-1.37A82,82,0,0,1,256.8,137,100,100,0,0,1,282.67,138Z"/></g><polygon class="cls-13" points="167 222.21 175.69 220.62 167 219.03 165.42 208.82 163.83 219.03 155.14 220.62 163.83 222.21 165.42 232.43 167 222.21"/><polygon class="cls-14" points="319.21 177.88 322.53 177.27 319.21 176.67 318.6 172.77 318 176.67 314.68 177.27 318 177.88 318.6 181.78 319.21 177.88"/><polygon class="cls-15" points="323.44 271.53 330.07 270.32 323.44 269.11 322.23 261.31 321.02 269.11 314.38 270.32 321.02 271.53 322.23 279.33 323.44 271.53"/><polygon class="cls-16" points="318.45 148.82 322.23 148.13 318.45 147.44 317.76 143 317.07 147.44 313.29 148.13 317.07 148.82 317.76 153.27 318.45 148.82"/><polygon class="cls-17" points="176.21 232.94 179.01 232.43 176.21 231.92 175.69 228.62 175.18 231.92 172.38 232.43 175.18 232.94 175.69 236.23 176.21 232.94"/><polygon class="cls-16" points="207.46 176.46 212.39 175.56 207.46 174.66 206.55 168.86 205.65 174.66 200.72 175.56 205.65 176.46 206.55 182.26 207.46 176.46"/><polygon class="cls-16" points="240.42 168.07 243.22 167.56 240.42 167.05 239.91 163.76 239.39 167.05 236.59 167.56 239.39 168.07 239.91 171.37 240.42 168.07"/><polygon class="cls-16" points="270.03 259.82 274.96 258.92 270.03 258.02 269.13 252.22 268.23 258.02 263.3 258.92 268.23 259.82 269.13 265.62 270.03 259.82"/><polygon class="cls-16" points="278.79 249.44 281.59 248.93 278.79 248.41 278.28 245.12 277.76 248.41 274.96 248.93 277.76 249.44 278.28 252.73 278.79 249.44"/><polygon class="cls-16" points="249.59 258.01 252.4 257.5 249.59 256.99 249.08 253.7 248.57 256.99 245.77 257.5 248.57 258.01 249.08 261.31 249.59 258.01"/><g class="cls-9"><circle class="cls-16" cx="213.47" cy="155.58" r="4.59"/><path class="cls-16" d="M226.3,168.58a2.79,2.79,0,1,1-2.79-2.79A2.79,2.79,0,0,1,226.3,168.58Z"/><circle class="cls-16" cx="212.05" cy="167.19" r="1.39"/></g><path class="cls-16" d="M152.65,195.1a3,3,0,1,1-3-3A3,3,0,0,1,152.65,195.1Z"/><path class="cls-16" d="M143.54,203.57a1.22,1.22,0,1,1-1.22-1.22A1.22,1.22,0,0,1,143.54,203.57Z"/><path class="cls-16" d="M208.88,243a1.17,1.17,0,0,1-2.33,0,1.17,1.17,0,1,1,2.33,0Z"/><path class="cls-16" d="M218.72,243.49a1.63,1.63,0,1,1-1.63-1.63A1.63,1.63,0,0,1,218.72,243.49Z"/><g class="cls-18"><path class="cls-16" d="M235.52,268.36a.74.74,0,1,1-.74-.74A.74.74,0,0,1,235.52,268.36Z"/><path class="cls-16" d="M249.4,273.41a3.09,3.09,0,1,1-3.09-3.09A3.1,3.1,0,0,1,249.4,273.41Z"/><circle class="cls-16" cx="274.43" cy="234.33" r="1.9"/><circle class="cls-16" cx="287.31" cy="234.79" r="2.36"/><circle class="cls-16" cx="288.28" cy="253.19" r="0.96"/></g><path class="cls-16" d="M286.29,137.16A1.26,1.26,0,1,1,285,135.9,1.26,1.26,0,0,1,286.29,137.16Z"/><path class="cls-16" d="M276.33,145.43a.95.95,0,1,1-.95-1A1,1,0,0,1,276.33,145.43Z"/><path class="cls-16" d="M311.39,166.17a2.42,2.42,0,1,1-2.41-2.41A2.41,2.41,0,0,1,311.39,166.17Z"/><path class="cls-16" d="M331.84,183.14a.89.89,0,1,1-.88-.88A.88.88,0,0,1,331.84,183.14Z"/><path class="cls-16" d="M336.1,261.94a3,3,0,1,1-3-3A3,3,0,0,1,336.1,261.94Z"/><path class="cls-16" d="M361.91,225.44a1.92,1.92,0,1,1-1.92-1.93A1.92,1.92,0,0,1,361.91,225.44Z"/><path class="cls-16" d="M354.22,219.07a2.37,2.37,0,1,1-2.37-2.37A2.37,2.37,0,0,1,354.22,219.07Z"/><text class="cls-19" transform="translate(105.02 372.21)">SCE<tspan class="cls-20" x="106.9" y="0">P</tspan><tspan x="143.8" y="0">TRUM</tspan></text></g></svg>